<svg xmlns="http://www.w3.org/2000/svg">
<symbol id="icon-meetup" viewBox="0 0 32 32">
<path class="path1" d="M25.6 4.267c-0.268-0.925-1.11-3.971-1.934-4.267-1.467 0-2.789-0.012-4.267 0-0.523 0.003-2.145 2.753-2.333 3.2-1.029 2.468-1.401 3.836-2.133 6.4-0.772 2.709-1.503 5.569-2.133 8.533-0.283-0.474-0.876-1.774-1.067-2.133-1.397-2.675-1.801-4.797-3.2-7.467-1.409-2.687-1.239-3.699-4.267-3.2-0.753 0.122-2.508 0.755-3.2 1.067-0.345 0.156-1.067 0.8-1.067 2.133 0 6.267 0 12.133 1.067 18.133 0.653 4.278 0.178 4.767 4.267 3.2 0.204-0.079-0.204 0.085 0 0 2.133-1.067 3.366-1.077 3.2-2.133-0.293-1.827-0.83-4.564-1.067-6.4 0.084-0.006-0.086 0.006 0 0 1.067 0 3.084 3.301 4.267 5.333 0.971 1.654 2.133 2.133 3.2 2.133 4.267 0 5.333-1.067 5.333-2.133s-0.047-3.452 0-4.267c0-2.133-0.1-7.771 0-8.533 1.851 5.917 3.613 11.367 5.333 17.067 0.299 0.995 2.074 1.379 3.134 1.067 1.934 0 3.509-0.699 3.267-1.534-2.134-7.347-2.951-11.966-4.268-17.666-0.75-3.255-1.067-4.267-2.133-8.533z"></path>
</symbol>
</svg>