<svg xmlns="http://www.w3.org/2000/svg" xmlns:xlink="http://www.w3.org/1999/xlink" width="1300" height="650"><defs><path id="A" transform="scale(.0616)" fill="#fff" d="M-.162 0L0-.5.162 0z"/><g id="B"><use xlink:href="#A" transform="rotate(216)"/><use xlink:href="#A" transform="rotate(288)"/><use xlink:href="#A"/><use xlink:href="#A" transform="rotate(72)"/><use xlink:href="#A" transform="rotate(144)"/></g><g id="C"><use xlink:href="#B" x="-.252"/><use xlink:href="#B" x="-.126"/><use xlink:href="#B"/><use xlink:href="#B" x=".126"/><use xlink:href="#B" x=".252"/></g><g id="D"><use xlink:href="#C" x="-.063"/><use xlink:href="#B" x=".315"/></g><g id="E"><use xlink:href="#D"/><use xlink:href="#C" y=".054"/><use xlink:href="#D" y=".108"/><use xlink:href="#C" y=".162"/></g><g id="F"><use xlink:href="#E" y="-.216"/><use xlink:href="#E"/><use xlink:href="#D" y=".216"/></g><path id="G" fill="#b22234" d="M0 0h1300v50H0z"/></defs><path fill="#fff" d="M0 0h1300v650H0z"/><use xlink:href="#G"/><use xlink:href="#G" y="100"/><use xlink:href="#G" y="200"/><use xlink:href="#G" y="300"/><use xlink:href="#G" y="400"/><use xlink:href="#G" y="500"/><use xlink:href="#G" y="600"/><path fill="#3c3b6e" d="M0 0h494v350H0z"/><use xlink:href="#F" transform="matrix(650 0 0 650 247 175)"/><svg viewBox="0 0 60 30" width="1300" height="650"><clipPath id="H"><path d="M30,15L60,30V15H0V30H30z"/></clipPath><clipPath id="I"><path d="M0,30H60V0z"/></clipPath><g clip-path="url(#I)"><path d="M0 0v30h60V0z" fill="#00247d"/><path d="M0 0l60 30m0-30L0 30" stroke="#fff" stroke-width="6"/><path d="M0 30l30-15 30 15" clip-path="url(#H)" fill="none" stroke="#cf142b" stroke-width="4"/><path d="M30 0v30M0 15h60" stroke="#fff" stroke-width="10"/><path d="M30 0v30M0 15h60" stroke="#cf142b" stroke-width="6"/></g></svg></svg>
